# xmcd
#
# Track frame offsets:
#	150
#	17787
#	28424
#	50140
#	68295
#	87057
#	104714
#	129598
#	144598
#	160239
#	178103
#	195803
#
# Disc length: 2866 seconds
#
# Revision: 1
# Processed by: cddbd v1.5.1PL0 Copyright (c) Steve Scherf et al.
# Submitted via: audiograbber 1.83.01
#
DISCID=a20b300c
DTITLE=Ray Satterwhite and Mellody Reed - Ruminations
DYEAR=2004
DGENRE=
TTITLE0=Black Widow
TTITLE1=No More
TTITLE2=The Way I Feel About You
TTITLE3=Mama Marie
TTITLE4=Stan's Story
TTITLE5=Saturday With Rain
TTITLE6=We Do Get Even
TTITLE7=Fanny Lee
TTITLE8=Body Talk
TTITLE9=Infatuation
TTITLE10=Lady Lottie
TTITLE11=Waiting In The Wings
EXTD=All Material on this CD is original
EXTT0=
EXTT1=
EXTT2=
EXTT3=
EXTT4=
EXTT5=
EXTT6=
EXTT7=
EXTT8=
EXTT9=
EXTT10=
EXTT11=
PLAYORDER=
